<?xml version="1.0" encoding="utf-8"?>
<!-- Svg Vector Icons : http://www.onlinewebfonts.com/icon -->
<!DOCTYPE svg PUBLIC "-//W3C//DTD SVG 1.1//EN" "http://www.w3.org/Graphics/SVG/1.1/DTD/svg11.dtd">
<svg version="1.1" xmlns="http://www.w3.org/2000/svg" xmlns:xlink="http://www.w3.org/1999/xlink" x="0px" y="0px" viewBox="0 0 1000 1000" enable-background="new 0 0 1000 1000" xml:space="preserve">
<metadata> Svg Vector Icons : http://www.onlinewebfonts.com/icon </metadata>
<g><g><g><path d="M500,990c-45.1,0-88.5-5.9-130.3-17.6c-41.8-11.8-80.9-28.3-117.1-49.5c-36.3-21.2-69.3-46.7-99-76.4c-29.7-29.7-55.2-62.7-76.4-99c-21.2-36.3-37.7-75.3-49.5-117.1C15.9,588.5,10,545.1,10,500s5.9-88.5,17.6-130.3c11.8-41.8,28.3-80.9,49.5-117.1c21.2-36.3,46.7-69.3,76.4-99c29.7-29.7,62.7-55.2,99-76.4c36.3-21.2,75.3-37.7,117.1-49.5C411.5,15.9,454.9,10,500,10c67.3,0,130.8,12.9,190.6,38.7c59.8,25.8,111.7,60.8,155.8,104.9c44.1,44.1,79.1,96,104.9,155.8C977.1,369.2,990,432.7,990,500c0,45.1-5.9,88.5-17.6,130.3c-11.8,41.8-28.3,80.8-49.5,117.1c-21.2,36.3-46.7,69.3-76.4,99c-29.7,29.7-62.7,55.2-99,76.4c-36.3,21.2-75.3,37.7-117.1,49.5C588.5,984.1,545.1,990,500,990z M612.7,288.3c-22.9,0-44.1,4.9-63.7,14.7c-19.6,9.8-35.9,23.5-49,41.2c-13.1-17.6-29.4-31.4-49-41.2c-19.6-9.8-40.8-14.7-63.7-14.7c-19.6,0-38.1,3.8-55.4,11.3c-17.3,7.5-32.3,17.8-45.1,30.9c-12.7,13.1-23,28.3-30.9,45.6c-7.8,17.3-11.8,35.8-11.8,55.4c0,20.9,2.3,39.9,6.9,56.8c4.6,17,10.5,32.5,17.6,46.5c7.2,14,15.2,27,24,38.7c8.8,11.8,17.1,22.5,25,32.3l7.8,8.8c9.8,11.8,23.7,25.5,41.6,41.2c18,15.7,35.8,30.5,53.4,44.6c17.6,14,33.3,26.1,47,36.3c13.7,10.1,21.2,15.5,22.5,16.2c2.6,2,5.9,2.9,9.8,2.9c3.3,0,6.5-1,9.8-2.9c1.3-0.7,8.8-6,22.5-16.2c13.7-10.1,29.4-22.2,47-36.3c17.6-14,35.4-28.9,53.4-44.6c18-15.7,31.9-29.4,41.7-41.2l7.8-8.8c7.8-9.8,16.2-20.6,25-32.3c8.8-11.8,16.8-24.7,24-38.7c7.2-14,13.1-29.6,17.6-46.5c4.6-17,6.9-35.9,6.9-56.8c0-19.6-3.9-38.1-11.8-55.4c-7.8-17.3-18.1-32.5-30.9-45.6c-12.7-13.1-27.8-23.4-45.1-30.9C650.8,292.1,632.3,288.3,612.7,288.3z"/></g></g><g></g><g></g><g></g><g></g><g></g><g></g><g></g><g></g><g></g><g></g><g></g><g></g><g></g><g></g><g></g></g>
</svg>